<mxfile host="app.diagrams.net" modified="2024-05-27T10:40:43.865Z" agent="Mozilla/5.0 (Windows NT 10.0; Win64; x64; rv:126.0) Gecko/20100101 Firefox/126.0" version="24.4.7" etag="n0N6LqXErWFoWf_u9Y7m" type="github">
  <diagram name="PÃ¡gina-1" id="lZW_wrRzuIfhznadt4ed">
    <mxGraphModel>
      <root>
        <mxCell id="0" />
        <mxCell id="1" parent="0" />
      </root>
    </mxGraphModel>
  </diagram>
</mxfile>
